<mxfile host="Electron" agent="Mozilla/5.0 (X11; Linux x86_64) AppleWebKit/537.36 (KHTML, like Gecko) draw.io/28.0.6 Chrome/138.0.7204.100 Electron/37.2.3 Safari/537.36" version="28.0.6">
  <diagram name="Page-1" id="0T-4phRKAJT4-IHzqV7b">
    <mxGraphModel dx="763" dy="550" grid="1" gridSize="10" guides="1" tooltips="1" connect="1" arrows="1" fold="1" page="1" pageScale="1" pageWidth="850" pageHeight="1100" math="0" shadow="0">
      <root>
        <mxCell id="0" />
        <mxCell id="1" parent="0" />
        <mxCell id="Ht0l2AZ8sPLP8vT-4crQ-10" value="" style="rounded=1;whiteSpace=wrap;html=1;fillColor=none;dashed=1;dashPattern=8 8;" vertex="1" parent="1">
          <mxGeometry x="540" y="140" width="120" height="160" as="geometry" />
        </mxCell>
        <mxCell id="Ht0l2AZ8sPLP8vT-4crQ-8" style="edgeStyle=orthogonalEdgeStyle;rounded=0;orthogonalLoop=1;jettySize=auto;html=1;exitX=0;exitY=0.25;exitDx=0;exitDy=0;entryX=0.25;entryY=0;entryDx=0;entryDy=0;" edge="1" parent="1" source="Ht0l2AZ8sPLP8vT-4crQ-1" target="Ht0l2AZ8sPLP8vT-4crQ-2">
          <mxGeometry relative="1" as="geometry" />
        </mxCell>
        <mxCell id="Ht0l2AZ8sPLP8vT-4crQ-1" value="Executable Common Platform" style="rounded=0;whiteSpace=wrap;html=1;" vertex="1" parent="1">
          <mxGeometry x="360" y="160" width="160" height="60" as="geometry" />
        </mxCell>
        <mxCell id="Ht0l2AZ8sPLP8vT-4crQ-6" style="edgeStyle=orthogonalEdgeStyle;rounded=0;orthogonalLoop=1;jettySize=auto;html=1;exitX=0.75;exitY=0;exitDx=0;exitDy=0;entryX=0;entryY=0.75;entryDx=0;entryDy=0;" edge="1" parent="1" source="Ht0l2AZ8sPLP8vT-4crQ-2" target="Ht0l2AZ8sPLP8vT-4crQ-1">
          <mxGeometry relative="1" as="geometry" />
        </mxCell>
        <mxCell id="Ht0l2AZ8sPLP8vT-4crQ-2" value="Mock Modbus Interface&lt;div&gt;(Python)&lt;/div&gt;" style="rounded=0;whiteSpace=wrap;html=1;" vertex="1" parent="1">
          <mxGeometry x="200" y="320" width="160" height="60" as="geometry" />
        </mxCell>
        <mxCell id="Ht0l2AZ8sPLP8vT-4crQ-4" style="edgeStyle=orthogonalEdgeStyle;rounded=0;orthogonalLoop=1;jettySize=auto;html=1;exitX=0.5;exitY=0;exitDx=0;exitDy=0;entryX=1;entryY=0.5;entryDx=0;entryDy=0;" edge="1" parent="1" source="Ht0l2AZ8sPLP8vT-4crQ-3" target="Ht0l2AZ8sPLP8vT-4crQ-1">
          <mxGeometry relative="1" as="geometry" />
        </mxCell>
        <mxCell id="Ht0l2AZ8sPLP8vT-4crQ-13" value="&lt;font style=&quot;font-size: 10px;&quot;&gt;Measured&amp;nbsp;&lt;/font&gt;&lt;div&gt;&lt;font style=&quot;font-size: 10px;&quot;&gt;flow rate&lt;/font&gt;&lt;/div&gt;" style="edgeLabel;html=1;align=center;verticalAlign=middle;resizable=0;points=[];" vertex="1" connectable="0" parent="Ht0l2AZ8sPLP8vT-4crQ-4">
          <mxGeometry x="-0.1364" relative="1" as="geometry">
            <mxPoint y="1" as="offset" />
          </mxGeometry>
        </mxCell>
        <mxCell id="Ht0l2AZ8sPLP8vT-4crQ-3" value="Mock FSB Interface&lt;div&gt;(Python)&lt;/div&gt;" style="rounded=0;whiteSpace=wrap;html=1;" vertex="1" parent="1">
          <mxGeometry x="520" y="320" width="160" height="60" as="geometry" />
        </mxCell>
        <mxCell id="Ht0l2AZ8sPLP8vT-4crQ-9" value="" style="rounded=1;whiteSpace=wrap;html=1;fillColor=none;dashed=1;dashPattern=8 8;" vertex="1" parent="1">
          <mxGeometry x="220" y="140" width="120" height="160" as="geometry" />
        </mxCell>
        <mxCell id="Ht0l2AZ8sPLP8vT-4crQ-11" value="TCP Communication" style="text;html=1;align=center;verticalAlign=middle;resizable=0;points=[];autosize=1;strokeColor=none;fillColor=none;" vertex="1" parent="1">
          <mxGeometry x="215" y="110" width="130" height="30" as="geometry" />
        </mxCell>
        <mxCell id="Ht0l2AZ8sPLP8vT-4crQ-12" value="UART Communication" style="text;html=1;align=center;verticalAlign=middle;resizable=0;points=[];autosize=1;strokeColor=none;fillColor=none;" vertex="1" parent="1">
          <mxGeometry x="530" y="110" width="140" height="30" as="geometry" />
        </mxCell>
        <mxCell id="Ht0l2AZ8sPLP8vT-4crQ-14" value="&lt;span style=&quot;font-size: 10px;&quot;&gt;New flow&lt;/span&gt;&lt;div&gt;&lt;span style=&quot;font-size: 10px;&quot;&gt;setpoint&lt;/span&gt;&lt;/div&gt;" style="edgeLabel;html=1;align=center;verticalAlign=middle;resizable=0;points=[];" vertex="1" connectable="0" parent="1">
          <mxGeometry x="310" y="230" as="geometry">
            <mxPoint x="5" y="6" as="offset" />
          </mxGeometry>
        </mxCell>
        <mxCell id="Ht0l2AZ8sPLP8vT-4crQ-15" value="&lt;span style=&quot;font-size: 10px;&quot;&gt;New&amp;nbsp;&lt;/span&gt;&lt;div&gt;&lt;span style=&quot;font-size: 10px;&quot;&gt;setpoint&lt;/span&gt;&lt;div&gt;&lt;span style=&quot;font-size: 10px;&quot;&gt;actuator&lt;/span&gt;&lt;/div&gt;&lt;/div&gt;" style="edgeLabel;html=1;align=center;verticalAlign=middle;resizable=0;points=[];" vertex="1" connectable="0" parent="1">
          <mxGeometry x="260" y="238" as="geometry">
            <mxPoint x="-16" y="-1" as="offset" />
          </mxGeometry>
        </mxCell>
      </root>
    </mxGraphModel>
  </diagram>
</mxfile>
